<mxfile host="app.diagrams.net" modified="2024-06-27T18:42:53.482Z" agent="Mozilla/5.0 (Macintosh; Intel Mac OS X 10.15; rv:128.0) Gecko/20100101 Firefox/128.0" version="24.5.1" etag="x1y7N-MVWOOF6w0rm3ZX" type="github">
  <diagram name="Page-1" id="pxp7qfaBqFWQBgs7-R0P">
    <mxGraphModel>
      <root>
        <mxCell id="0" />
        <mxCell id="1" parent="0" />
      </root>
    </mxGraphModel>
  </diagram>
</mxfile>
